<?xml version="1.0" encoding="UTF-8" standalone="no"?>
<!-- Created with Inkscape (http://www.inkscape.org/) -->

<svg
   xmlns:dc="http://purl.org/dc/elements/1.1/"
   xmlns:cc="http://creativecommons.org/ns#"
   xmlns:rdf="http://www.w3.org/1999/02/22-rdf-syntax-ns#"
   xmlns:svg="http://www.w3.org/2000/svg"
   xmlns="http://www.w3.org/2000/svg"
   xmlns:sodipodi="http://sodipodi.sourceforge.net/DTD/sodipodi-0.dtd"
   xmlns:inkscape="http://www.inkscape.org/namespaces/inkscape"
   width="48pt"
   height="48pt"
   viewBox="0 0 16.933334 16.933333"
   version="1.1"
   id="svg979"
   inkscape:version="0.92.4 (5da689c313, 2019-01-14)"
   sodipodi:docname="27 - Sun Cream.svg"
   inkscape:export-filename="E:\TR Design Studio Creative\Project Design\TR Creative Design\Icon Design\Project Hiring\Icon Icons\Project - 001\002 - Beauty And Fashion\Send\3 - Flat\27 - Sun Cream.png"
   inkscape:export-xdpi="768"
   inkscape:export-ydpi="768">
  <defs
     id="defs973" />
  <sodipodi:namedview
     id="base"
     pagecolor="#ffffff"
     bordercolor="#666666"
     borderopacity="1.0"
     inkscape:pageopacity="0.0"
     inkscape:pageshadow="2"
     inkscape:zoom="6.0435533"
     inkscape:cx="32"
     inkscape:cy="32"
     inkscape:document-units="pt"
     inkscape:current-layer="layer1"
     showgrid="false"
     units="pt"
     inkscape:window-width="1366"
     inkscape:window-height="716"
     inkscape:window-x="-8"
     inkscape:window-y="-8"
     inkscape:window-maximized="1"
     inkscape:snap-bbox="true"
     inkscape:bbox-nodes="true"
     inkscape:snap-nodes="false"
     showguides="false">
    <inkscape:grid
       type="xygrid"
       id="grid1526" />
    <sodipodi:guide
       position="0.97013909,15.963209"
       orientation="56.666615,0"
       id="guide1528"
       inkscape:locked="false" />
    <sodipodi:guide
       position="0.97013909,0.97016731"
       orientation="0,56.666667"
       id="guide1530"
       inkscape:locked="false" />
    <sodipodi:guide
       position="15.963195,0.97016731"
       orientation="-56.666615,0"
       id="guide1532"
       inkscape:locked="false" />
    <sodipodi:guide
       position="15.963195,15.963209"
       orientation="0,-56.666667"
       id="guide1534"
       inkscape:locked="false" />
  </sodipodi:namedview>
  <metadata
     id="metadata976">
    <rdf:RDF>
      <cc:Work
         rdf:about="">
        <dc:format>image/svg+xml</dc:format>
        <dc:type
           rdf:resource="http://purl.org/dc/dcmitype/StillImage" />
        <dc:title></dc:title>
      </cc:Work>
    </rdf:RDF>
  </metadata>
  <g
     inkscape:label="Layer 1"
     inkscape:groupmode="layer"
     id="layer1"
     transform="translate(0,-280.06668)">
    <g
       style="display:inline;stroke-width:0.8324877"
       transform="matrix(1.201219,0,0,1.201219,0.84870771,-139.96448)"
       id="g1067">
      <path
         inkscape:connector-curvature="0"
         id="path1004"
         d="m 5.8613281,350.47852 a 0.26461046,0.26461046 0 0 0 -0.2519531,0.1621 l -3.5800781,8.58008 a 0.26461046,0.26461046 0 0 0 0.1132812,0.33203 l 3.1816407,1.8086 a 0.26461046,0.26461046 0 0 0 0.3378906,-0.0645 l 5.8164066,-7.2793 a 0.26461046,0.26461046 0 0 0 -0.07422,-0.39453 l -5.4179689,-3.10938 a 0.26461046,0.26461046 0 0 0 -0.125,-0.0351 z"
         style="color:#000000;font-style:normal;font-variant:normal;font-weight:normal;font-stretch:normal;font-size:medium;line-height:normal;font-family:sans-serif;font-variant-ligatures:normal;font-variant-position:normal;font-variant-caps:normal;font-variant-numeric:normal;font-variant-alternates:normal;font-feature-settings:normal;text-indent:0;text-align:start;text-decoration:none;text-decoration-line:none;text-decoration-style:solid;text-decoration-color:#000000;letter-spacing:normal;word-spacing:normal;text-transform:none;writing-mode:lr-tb;direction:ltr;text-orientation:mixed;dominant-baseline:auto;baseline-shift:baseline;text-anchor:start;white-space:normal;shape-padding:0;clip-rule:nonzero;display:inline;overflow:visible;visibility:visible;isolation:auto;mix-blend-mode:normal;color-interpolation:sRGB;color-interpolation-filters:linearRGB;solid-color:#000000;solid-opacity:1;vector-effect:none;fill:#ffd657;fill-opacity:1;fill-rule:nonzero;stroke:none;stroke-width:0.44052583;stroke-linecap:round;stroke-linejoin:round;stroke-miterlimit:4;stroke-dasharray:none;stroke-dashoffset:0;stroke-opacity:1;color-rendering:auto;image-rendering:auto;shape-rendering:auto;text-rendering:auto;enable-background:accumulate" />
      <path
         inkscape:connector-curvature="0"
         d="m 5.8611176,350.47849 a 0.26461045,0.26461045 0 0 0 -0.2361613,0.13177 l 5.2503257,3.01274 a 0.26461045,0.26461045 0 0 1 0.0739,0.3948 l -5.7918943,7.24866 0.1669148,0.0951 a 0.26461045,0.26461045 0 0 0 0.3379638,-0.0646 l 5.8161827,-7.27915 a 0.26461045,0.26461045 0 0 0 -0.0739,-0.3948 l -5.4182744,-3.10938 a 0.26461045,0.26461045 0 0 0 -0.125057,-0.0351 z"
         style="color:#000000;font-style:normal;font-variant:normal;font-weight:normal;font-stretch:normal;font-size:medium;line-height:normal;font-family:sans-serif;font-variant-ligatures:normal;font-variant-position:normal;font-variant-caps:normal;font-variant-numeric:normal;font-variant-alternates:normal;font-feature-settings:normal;text-indent:0;text-align:start;text-decoration:none;text-decoration-line:none;text-decoration-style:solid;text-decoration-color:#000000;letter-spacing:normal;word-spacing:normal;text-transform:none;writing-mode:lr-tb;direction:ltr;text-orientation:mixed;dominant-baseline:auto;baseline-shift:baseline;text-anchor:start;white-space:normal;shape-padding:0;clip-rule:nonzero;display:inline;overflow:visible;visibility:visible;isolation:auto;mix-blend-mode:normal;color-interpolation:sRGB;color-interpolation-filters:linearRGB;solid-color:#000000;solid-opacity:1;vector-effect:none;fill:#f4bc0f;fill-opacity:1;fill-rule:nonzero;stroke:none;stroke-width:0.44052669;stroke-linecap:round;stroke-linejoin:round;stroke-miterlimit:4;stroke-dasharray:none;stroke-dashoffset:0;stroke-opacity:1;color-rendering:auto;image-rendering:auto;shape-rendering:auto;text-rendering:auto;enable-background:accumulate"
         id="path1016" />
      <path
         inkscape:connector-curvature="0"
         id="path987"
         d="m 2.2441406,359.03516 a 0.26460996,0.26460996 0 0 0 -0.1992187,0.13086 c -0.2823706,0.48908 -0.8613281,1.46875 -0.8613281,1.46875 a 0.26460996,0.26460996 0 0 0 0.095703,0.36328 l 3.140625,1.8125 a 0.26460996,0.26460996 0 0 0 0.3574219,-0.0879 l 0.9023437,-1.45118 a 0.26460996,0.26460996 0 0 0 -0.017578,-0.30468 c -0.8813348,-1.08973 -2.0884187,-1.6554 -3.3320313,-1.92578 a 0.26460996,0.26460996 0 0 0 -0.085937,-0.006 z"
         style="color:#000000;font-style:normal;font-variant:normal;font-weight:normal;font-stretch:normal;font-size:medium;line-height:normal;font-family:sans-serif;font-variant-ligatures:normal;font-variant-position:normal;font-variant-caps:normal;font-variant-numeric:normal;font-variant-alternates:normal;font-feature-settings:normal;text-indent:0;text-align:start;text-decoration:none;text-decoration-line:none;text-decoration-style:solid;text-decoration-color:#000000;letter-spacing:normal;word-spacing:normal;text-transform:none;writing-mode:lr-tb;direction:ltr;text-orientation:mixed;dominant-baseline:auto;baseline-shift:baseline;text-anchor:start;white-space:normal;shape-padding:0;clip-rule:nonzero;display:inline;overflow:visible;visibility:visible;isolation:auto;mix-blend-mode:normal;color-interpolation:sRGB;color-interpolation-filters:linearRGB;solid-color:#000000;solid-opacity:1;vector-effect:none;fill:#dce1e5;fill-opacity:1;fill-rule:nonzero;stroke:none;stroke-width:0.440525;stroke-linecap:round;stroke-linejoin:round;stroke-miterlimit:4;stroke-dasharray:none;stroke-dashoffset:0;stroke-opacity:1;color-rendering:auto;image-rendering:auto;shape-rendering:auto;text-rendering:auto;enable-background:accumulate" />
      <path
         inkscape:connector-curvature="0"
         transform="matrix(0.26458333,0,0,0.26458333,0,284.3)"
         d="m 6.5390625,284.98828 c -0.4494399,0.76585 -0.6810426,1.16233 -1.0136719,1.72656 l 4.7792974,2.64258 a 1.0001006,1.0001006 0 0 0 0.398437,0.11914 l 2.40625,0.19922 1.152344,1.83008 a 1.0001006,1.0001006 0 0 0 0.347656,0.33984 l 4.634766,2.64453 1.058593,-1.70117 -4.482422,-2.56054 -1.277343,-2.03711 a 1.0001006,1.0001006 0 0 0 -0.767578,-0.47266 l -2.695313,-0.2207 z"
         style="color:#000000;font-style:normal;font-variant:normal;font-weight:normal;font-stretch:normal;font-size:medium;line-height:normal;font-family:sans-serif;font-variant-ligatures:normal;font-variant-position:normal;font-variant-caps:normal;font-variant-numeric:normal;font-variant-alternates:normal;font-feature-settings:normal;text-indent:0;text-align:start;text-decoration:none;text-decoration-line:none;text-decoration-style:solid;text-decoration-color:#000000;letter-spacing:normal;word-spacing:normal;text-transform:none;writing-mode:lr-tb;direction:ltr;text-orientation:mixed;dominant-baseline:auto;baseline-shift:baseline;text-anchor:start;white-space:normal;shape-padding:0;clip-rule:nonzero;display:inline;overflow:visible;visibility:visible;isolation:auto;mix-blend-mode:normal;color-interpolation:sRGB;color-interpolation-filters:linearRGB;solid-color:#000000;solid-opacity:1;vector-effect:none;fill:#c1d0d2;fill-opacity:1;fill-rule:nonzero;stroke:none;stroke-width:1.6649754;stroke-linecap:round;stroke-linejoin:round;stroke-miterlimit:4;stroke-dasharray:none;stroke-dashoffset:0;stroke-opacity:1;color-rendering:auto;image-rendering:auto;shape-rendering:auto;text-rendering:auto;enable-background:accumulate"
         id="path978" />
      <path
         inkscape:connector-curvature="0"
         transform="matrix(0.26458333,0,0,0.26458333,0,284.3)"
         d="m 25.171875,257.58594 a 1.0000006,1.0000006 0 0 0 -0.257813,0.0312 1.0000006,1.0000006 0 0 0 -0.708984,1.22461 l 0.494141,1.82422 a 1.0000006,1.0000006 0 0 0 1.21875,0.70898 1.0000006,1.0000006 0 0 0 0.708984,-1.22656 l -0.488281,-1.82227 a 1.0000006,1.0000006 0 0 0 -0.966797,-0.73828 z m 5.876953,0.84179 a 1.0000006,1.0000006 0 0 0 -0.894531,0.50196 l -0.943359,1.63086 a 1.0000006,1.0000006 0 0 0 0.361328,1.36718 1.0000006,1.0000006 0 0 0 1.365234,-0.36132 l 0.945312,-1.64063 a 1.0000006,1.0000006 0 0 0 -0.361328,-1.36523 1.0000006,1.0000006 0 0 0 -0.472656,-0.13282 z m -10.623047,2.8125 a 1.0000006,1.0000006 0 0 0 -0.90039,0.50196 1.0000006,1.0000006 0 0 0 0.36914,1.36523 l 1.63086,0.94531 a 1.0000006,1.0000006 0 0 0 1.365234,-0.36914 1.0000006,1.0000006 0 0 0 -0.369141,-1.36523 l -1.630859,-0.94531 a 1.0000006,1.0000006 0 0 0 -0.464844,-0.13282 z m 6.271485,0.78907 c -1.316018,0.0947 -2.568816,0.81667 -3.273438,2.03711 -1.127395,1.95273 -0.448799,4.47807 1.503906,5.60547 1.952706,1.12739 4.478074,0.45077 5.605469,-1.50196 1.127395,-1.95269 0.450753,-4.47807 -1.501953,-5.60547 -0.732265,-0.42277 -1.544374,-0.59198 -2.333984,-0.53515 z m 7.916015,1.17578 a 1.0000006,1.0000006 0 0 0 -0.257812,0.0293 l -1.824219,0.49414 a 1.0000006,1.0000006 0 0 0 -0.707031,1.22656 1.0000006,1.0000006 0 0 0 1.224609,0.70117 l 1.822266,-0.48828 a 1.0000006,1.0000006 0 0 0 0.708984,-1.22461 1.0000006,1.0000006 0 0 0 -0.966797,-0.73828 z m -13.154297,3.50586 a 1.0000006,1.0000006 0 0 0 -0.265625,0.0371 l -1.816406,0.48828 a 1.0000006,1.0000006 0 0 0 -0.708984,1.22461 1.0000006,1.0000006 0 0 0 1.226562,0.70898 l 1.822266,-0.48828 a 1.0000006,1.0000006 0 0 0 0.701172,-1.22461 1.0000006,1.0000006 0 0 0 -0.958985,-0.74609 z m 10.59375,1.26953 a 1.0000006,1.0000006 0 0 0 -0.894531,0.50195 1.0000006,1.0000006 0 0 0 0.363281,1.36524 l 1.63086,0.94531 a 1.0000006,1.0000006 0 0 0 1.373047,-0.36914 1.0000006,1.0000006 0 0 0 -0.369141,-1.36524 l -1.630859,-0.9375 a 1.0000006,1.0000006 0 0 0 -0.472657,-0.14062 z m -7.923828,2.17773 a 1.0000006,1.0000006 0 0 0 -0.816406,0.50196 l -0.945312,1.63086 a 1.0000006,1.0000006 0 0 0 0.36914,1.36523 1.0000006,1.0000006 0 0 0 1.365234,-0.36133 l 0.945313,-1.63867 a 1.0000006,1.0000006 0 0 0 -0.369141,-1.36523 1.0000006,1.0000006 0 0 0 -0.464843,-0.13282 1.0000006,1.0000006 0 0 0 -0.08398,0 z m 4.195313,0.60547 a 1.0000006,1.0000006 0 0 0 -0.257813,0.0371 1.0000006,1.0000006 0 0 0 -0.708984,1.22656 l 0.486328,1.82227 a 1.0000006,1.0000006 0 0 0 1.226562,0.70117 1.0000006,1.0000006 0 0 0 0.708985,-1.2168 l -0.488281,-1.82421 a 1.0000006,1.0000006 0 0 0 -0.966797,-0.7461 z"
         style="color:#000000;font-style:normal;font-variant:normal;font-weight:normal;font-stretch:normal;font-size:medium;line-height:normal;font-family:sans-serif;font-variant-ligatures:normal;font-variant-position:normal;font-variant-caps:normal;font-variant-numeric:normal;font-variant-alternates:normal;font-feature-settings:normal;text-indent:0;text-align:start;text-decoration:none;text-decoration-line:none;text-decoration-style:solid;text-decoration-color:#000000;letter-spacing:normal;word-spacing:normal;text-transform:none;writing-mode:lr-tb;direction:ltr;text-orientation:mixed;dominant-baseline:auto;baseline-shift:baseline;text-anchor:start;white-space:normal;shape-padding:0;clip-rule:nonzero;display:inline;overflow:visible;visibility:visible;isolation:auto;mix-blend-mode:normal;color-interpolation:sRGB;color-interpolation-filters:linearRGB;solid-color:#000000;solid-opacity:1;vector-effect:none;fill:#f29312;fill-opacity:1;fill-rule:nonzero;stroke:none;stroke-width:1.6649754;stroke-linecap:round;stroke-linejoin:round;stroke-miterlimit:4;stroke-dasharray:none;stroke-dashoffset:0;stroke-opacity:1;color-rendering:auto;image-rendering:auto;shape-rendering:auto;text-rendering:auto;enable-background:accumulate"
         id="path1338" />
      <path
         inkscape:connector-curvature="0"
         id="path1239"
         d="m 8.3867188,359.49414 c 0,0 0.00194,0 0.00195,0 0.00704,0.0154 0.013672,0.0312 0.013672,0.0312 0,0 -0.015625,-0.0312 -0.015625,-0.0312 z"
         style="color:#000000;font-style:normal;font-variant:normal;font-weight:normal;font-stretch:normal;font-size:medium;line-height:normal;font-family:sans-serif;font-variant-ligatures:normal;font-variant-position:normal;font-variant-caps:normal;font-variant-numeric:normal;font-variant-alternates:normal;font-feature-settings:normal;text-indent:0;text-align:start;text-decoration:none;text-decoration-line:none;text-decoration-style:solid;text-decoration-color:#000000;letter-spacing:normal;word-spacing:normal;text-transform:none;writing-mode:lr-tb;direction:ltr;text-orientation:mixed;dominant-baseline:auto;baseline-shift:baseline;text-anchor:start;white-space:normal;shape-padding:0;clip-rule:nonzero;display:inline;overflow:visible;visibility:visible;isolation:auto;mix-blend-mode:normal;color-interpolation:sRGB;color-interpolation-filters:linearRGB;solid-color:#000000;solid-opacity:1;vector-effect:none;fill:#cfd8dc;fill-opacity:1;fill-rule:nonzero;stroke:none;stroke-width:0.44052583;stroke-linecap:round;stroke-linejoin:round;stroke-miterlimit:4;stroke-dasharray:none;stroke-dashoffset:0;stroke-opacity:1;color-rendering:auto;image-rendering:auto;shape-rendering:auto;text-rendering:auto;enable-background:accumulate" />
      <path
         style="color:#000000;font-style:normal;font-variant:normal;font-weight:normal;font-stretch:normal;font-size:medium;line-height:normal;font-family:sans-serif;font-variant-ligatures:normal;font-variant-position:normal;font-variant-caps:normal;font-variant-numeric:normal;font-variant-alternates:normal;font-feature-settings:normal;text-indent:0;text-align:start;text-decoration:none;text-decoration-line:none;text-decoration-style:solid;text-decoration-color:#000000;letter-spacing:normal;word-spacing:normal;text-transform:none;writing-mode:lr-tb;direction:ltr;text-orientation:mixed;dominant-baseline:auto;baseline-shift:baseline;text-anchor:start;white-space:normal;shape-padding:0;clip-rule:nonzero;display:inline;overflow:visible;visibility:visible;isolation:auto;mix-blend-mode:normal;color-interpolation:sRGB;color-interpolation-filters:linearRGB;solid-color:#000000;solid-opacity:1;vector-effect:none;fill:#dce1e5;fill-opacity:1;fill-rule:nonzero;stroke:none;stroke-width:0.44052583;stroke-linecap:round;stroke-linejoin:round;stroke-miterlimit:4;stroke-dasharray:none;stroke-dashoffset:0;stroke-opacity:1;color-rendering:auto;image-rendering:auto;shape-rendering:auto;text-rendering:auto;enable-background:accumulate"
         d="m 8.5800781,358.74609 c -0.2439191,0.007 -0.2564679,0.27991 -0.3366897,0.44844 -0.119353,0.28583 -0.2474295,0.57244 -0.428932,0.82491 -0.1604165,0.15142 -0.3070682,0.32679 -0.5157706,0.4158 -0.1514955,0.10162 -0.3979746,0.12562 -0.4474162,0.33194 -0.039665,0.16535 -0.012566,0.37778 0.1409206,0.47684 -0.1992819,0.0388 -0.3292347,0.23323 -0.4129507,0.40523 -0.060756,0.2058 0.1001074,0.39651 0.204391,0.55929 0.4230588,0.54107 1.1421711,0.72921 1.8003565,0.75046 0.5544826,0.0104 1.1344699,-0.0655 1.621245,-0.34705 0.368997,-0.23292 0.533337,-0.73208 0.414388,-1.14557 -0.07859,-0.26891 -0.305806,-0.45832 -0.537584,-0.59722 0.102502,-0.16499 0.03374,-0.40725 -0.05272,-0.57273 -0.1640821,-0.28665 -0.5174084,-0.32809 -0.8125115,-0.36896 -0.00345,-0.24113 -0.1242501,-0.46328 -0.2065318,-0.6862 -0.087799,-0.18372 -0.1512398,-0.45004 -0.3842923,-0.48952 l -0.045898,-0.006 z"
         id="path1231"
         inkscape:connector-curvature="0" />
      <path
         style="color:#000000;font-style:normal;font-variant:normal;font-weight:normal;font-stretch:normal;font-size:medium;line-height:normal;font-family:sans-serif;font-variant-ligatures:normal;font-variant-position:normal;font-variant-caps:normal;font-variant-numeric:normal;font-variant-alternates:normal;font-feature-settings:normal;text-indent:0;text-align:start;text-decoration:none;text-decoration-line:none;text-decoration-style:solid;text-decoration-color:#000000;letter-spacing:normal;word-spacing:normal;text-transform:none;writing-mode:lr-tb;direction:ltr;text-orientation:mixed;dominant-baseline:auto;baseline-shift:baseline;text-anchor:start;white-space:normal;shape-padding:0;clip-rule:nonzero;display:inline;overflow:visible;visibility:visible;isolation:auto;mix-blend-mode:normal;color-interpolation:sRGB;color-interpolation-filters:linearRGB;solid-color:#000000;solid-opacity:1;vector-effect:none;fill:#c1d0d2;fill-opacity:1;fill-rule:nonzero;stroke:none;stroke-width:0.44052669;stroke-linecap:round;stroke-linejoin:round;stroke-miterlimit:4;stroke-dasharray:none;stroke-dashoffset:0;stroke-opacity:1;color-rendering:auto;image-rendering:auto;shape-rendering:auto;text-rendering:auto;enable-background:accumulate"
         d="m 8.5797167,358.74605 c -0.1782397,0.003 -0.3108031,0.19413 -0.1693433,0.3347 0.1097033,0.25492 0.2290336,0.5119 0.2796238,0.78604 0.0074,0.14012 0.270936,0.0616 0.3792221,0.1281 0.2543835,0.0557 0.470982,0.2597 0.5141139,0.52027 0.060424,0.11964 -0.037076,0.30993 0.00592,0.37695 0.2692084,0.15914 0.5105958,0.41456 0.5354528,0.7409 0.03873,0.41082 -0.1645766,0.85963 -0.5504416,1.03753 -0.3498857,0.17279 -0.7392439,0.25083 -1.1263335,0.27853 0.5709491,0.0406 1.1653949,-0.0347 1.6816891,-0.29227 0.387311,-0.1932 0.580621,-0.66414 0.516255,-1.08043 -0.04588,-0.31928 -0.298897,-0.55207 -0.563933,-0.7071 0.08146,-0.10636 0.04445,-0.27093 0.02031,-0.39699 -0.06101,-0.2763 -0.3221099,-0.45855 -0.5917246,-0.49729 -0.1359712,-0.0374 -0.3413137,0.0123 -0.3047976,-0.18433 -0.085607,-0.30618 -0.2073962,-0.60301 -0.3541962,-0.88473 -0.059426,-0.0892 -0.1620601,-0.16073 -0.2718187,-0.15988 z"
         id="path1243"
         inkscape:connector-curvature="0" />
      <path
         inkscape:connector-curvature="0"
         d="m 2.262482,359.01554 a 0.26460995,0.26460995 0 0 0 -0.019637,0.001 0.26460995,0.26460995 0 0 0 -0.1586466,0.077 c 1.1415047,0.2927 2.2336084,0.8485 3.0473591,1.85467 a 0.26460995,0.26460995 0 0 1 0.01757,0.30489 l -0.8971029,1.4428 0.1663981,0.0961 a 0.26460995,0.26460995 0 0 0 0.3576009,-0.0879 l 0.9022705,-1.45107 a 0.26460995,0.26460995 0 0 0 -0.01757,-0.30489 c -0.8813347,-1.08973 -2.0884838,-1.65509 -3.3320963,-1.92547 a 0.26460995,0.26460995 0 0 0 -0.066146,-0.007 z"
         style="color:#000000;font-style:normal;font-variant:normal;font-weight:normal;font-stretch:normal;font-size:medium;line-height:normal;font-family:sans-serif;font-variant-ligatures:normal;font-variant-position:normal;font-variant-caps:normal;font-variant-numeric:normal;font-variant-alternates:normal;font-feature-settings:normal;text-indent:0;text-align:start;text-decoration:none;text-decoration-line:none;text-decoration-style:solid;text-decoration-color:#000000;letter-spacing:normal;word-spacing:normal;text-transform:none;writing-mode:lr-tb;direction:ltr;text-orientation:mixed;dominant-baseline:auto;baseline-shift:baseline;text-anchor:start;white-space:normal;shape-padding:0;clip-rule:nonzero;display:inline;overflow:visible;visibility:visible;isolation:auto;mix-blend-mode:normal;color-interpolation:sRGB;color-interpolation-filters:linearRGB;solid-color:#000000;solid-opacity:1;vector-effect:none;fill:#c2c9cf;fill-opacity:1;fill-rule:nonzero;stroke:none;stroke-width:0.440525;stroke-linecap:round;stroke-linejoin:round;stroke-miterlimit:4;stroke-dasharray:none;stroke-dashoffset:0;stroke-opacity:1;color-rendering:auto;image-rendering:auto;shape-rendering:auto;text-rendering:auto;enable-background:accumulate"
         id="path1021-5" />
    </g>
  </g>
</svg>
